<svg xmlns="http://www.w3.org/2000/svg" viewBox="0 0 486.92 108.87"><defs><style>.cls-1{fill:#fefefe;}.cls-2{fill:none;stroke:#fefefe;stroke-miterlimit:10;stroke-width:10px;}</style></defs><g id="レイヤー_2" data-name="レイヤー 2"><g id="レイヤー_1-2" data-name="レイヤー 1"><path class="cls-1" d="M44,36.91V86.43l-7.17-7.17L11.71,54.12h0L4.54,47V36.8L36.85,69.11V36.91ZM4.54,52l7.17,7.17V86.66H4.54Z"/><path class="cls-1" d="M94.5,36.92V44.1h-44V36.92ZM57.69,79.49H94.5v7.17h-44v-39h7.18V56.4h32v7.18h-32Z"/><path class="cls-1" d="M115.45,63.94l4.46,6L107.63,86.66H98.72Zm30.12,22.72h-8.91L122.14,67h0l-4.46-6v0L117,60,100,36.9h8.91L121.49,54l.65.88.65-.88L135.36,36.9h8.91L127.25,60l-.65.88Z"/><path class="cls-1" d="M148.21,44.11V36.93h44.37v7.18Zm18.21,42.55v-39h7.18v39Z"/><path class="cls-1" d="M274.31,65.23a14.24,14.24,0,0,1-12.37,21.3H246.45a14.27,14.27,0,0,1-14.26-13.87h7.18a7.09,7.09,0,0,0,7.08,6.69h15.49a7.06,7.06,0,1,0,0-14.12H246.43a14.18,14.18,0,0,1-10.21-4.31,14.72,14.72,0,0,1-2.16-2.86,14.23,14.23,0,0,1,12.37-21.29h15.86a14.26,14.26,0,0,1,12,7.16h0a14.19,14.19,0,0,1,1.88,6.69H269a7.1,7.1,0,0,0-6.81-6.69H246.43a7.06,7.06,0,0,0-.7,14.09c.23,0,.47,0,.72,0,.41,0,.83,0,1.24.05h14.25A14.25,14.25,0,0,1,274.31,65.23Z"/><path class="cls-1" d="M280.33,44V36.8H324.7V44Zm18.22,42.56v-39h7.17v39Z"/><path class="cls-1" d="M337.57,49.42l4.72,8.6L326.51,86.53H317Zm34.72,37.11h-9.48l-18.15-32.8-4.73-8.56,4.73-8.55h0l4.74,8.56Z"/><path class="cls-1" d="M420.38,86.53H398.91A25.65,25.65,0,0,1,381,79.35a24.38,24.38,0,0,1,0-35.28,25.65,25.65,0,0,1,17.89-7.18h21.38v7.18h-23.9a17.73,17.73,0,0,0,0,35.28h16.82V63.55H399l-3.31-7.18h24.66Z"/><path class="cls-1" d="M475.33,36.79V44h-44V36.79ZM438.52,79.35h36.81v7.18h-44v-39h7.17v8.72h32v7.17h-32Z"/><path class="cls-2" d="M0,103.87H170.28a40.08,40.08,0,0,0,40.08-40.08h0A40.09,40.09,0,0,1,250.45,23.7h224.4L454.68,3.54"/><path class="cls-1" d="M251.14,14.12a4,4,0,0,1-.52,2A4.13,4.13,0,0,1,247,18.26a4.87,4.87,0,0,0-1.08,0h-7.66V7h2.08v3h5.92a2.06,2.06,0,0,0,.11-4h-8.11V3.77h7.66a4.16,4.16,0,0,1,3.6,2.08l0,.05a4.14,4.14,0,0,1,.51,2,4.09,4.09,0,0,1-.53,2v0a4,4,0,0,1-.41.58,4.21,4.21,0,0,1,.64.47,4,4,0,0,1,.87,1.08A4.19,4.19,0,0,1,251.14,14.12Zm-2.08,0a2.06,2.06,0,0,0-1.67-2h-7v4h7.09A2.06,2.06,0,0,0,249.06,14.12Z"/><path class="cls-1" d="M266.43,3.78l-5.14,7-.16.21h0l-.19.27-.05.07v6.89h-2.09V11.37l-.05-.07-.19-.27h0l-.16-.21-5.14-7h2.58l4,5.48h0l4-5.48Z"/><path class="cls-1" d="M289.47,3.81V18.2l-2.08-2.09-7.3-7.3h0L278,6.73v-3l9.38,9.39V3.81ZM278,8.2l2.08,2.09v8H278Z"/><path class="cls-1" d="M298,7.49l1.37,2.5-4.58,8.27H292Zm10.08,10.77h-2.75l-5.27-9.52-1.38-2.49,1.38-2.48h0l1.38,2.48Z"/><path class="cls-1" d="M323.79,18.26h-6.24a7.44,7.44,0,0,1-5.19-2.08,7.09,7.09,0,0,1,0-10.25,7.44,7.44,0,0,1,5.19-2.08h6.21V5.93h-6.94a5.25,5.25,0,0,0-4.62,5.13,5.25,5.25,0,0,0,4.62,5.12h4.89V11.59h-4.12l-1-2.08h7.16Z"/><path class="cls-1" d="M333.09,3.8A7.23,7.23,0,1,1,325.86,11,7.23,7.23,0,0,1,333.09,3.8ZM328,11a5.15,5.15,0,1,0,5.14-5.14A5.15,5.15,0,0,0,328,11Z"/><path class="cls-1" d="M355.58,3.78l-5.14,7-.16.21h0l-.2.27-.05.07v6.89H348V11.37l-.06-.07L347.7,11h0l-.16-.21-5.14-7H345l4,5.48h0l4-5.48Z"/><path class="cls-1" d="M364.1,7.49l1.37,2.5-4.58,8.27h-2.75Zm10.09,10.77h-2.76l-5.27-9.52-1.37-2.49,1.37-2.48h0l1.38,2.48Z"/></g></g></svg>